<svg class="icon" viewBox="0 0 1024 1024" xmlns="http://www.w3.org/2000/svg" width="200" height="200">
  <defs>
    <style/>
  </defs>
  <path d="M134.1 256c13.46 0 24.38-9.55 24.38-21.33 0-11.8-10.92-21.34-24.38-21.34H36.57c-13.46 0-24.38 9.55-24.38 21.34 0 11.78 10.9 21.33 24.37 21.33h97.53zM134.1 533.33c13.46 0 24.38-9.55 24.38-21.33 0-11.78-10.92-21.33-24.38-21.33H36.57c-13.46 0-24.38 9.55-24.38 21.33 0 11.78 10.9 21.33 24.37 21.33h97.53zM134.1 810.67c13.46 0 24.38-9.55 24.38-21.34 0-11.78-10.92-21.33-24.38-21.33H36.57c-13.46 0-24.38 9.55-24.38 21.33 0 11.8 10.9 21.34 24.37 21.34h97.53zM987.43 256c13.46 0 24.38-9.55 24.38-21.33 0-11.8-10.9-21.34-24.37-21.34H280.38c-13.46 0-24.38 9.55-24.38 21.34 0 11.78 10.92 21.33 24.38 21.33h707.05zM993.52 533.33c13.47 0 24.38-9.55 24.38-21.33 0-11.78-10.9-21.33-24.38-21.33H286.48c-13.47 0-24.38 9.55-24.38 21.33 0 11.78 10.9 21.33 24.38 21.33h707.04zM996.57 810.67c13.47 0 24.38-9.55 24.38-21.34 0-11.78-10.9-21.33-24.38-21.33H289.52c-13.46 0-24.38 9.55-24.38 21.33 0 11.8 10.92 21.34 24.38 21.34h707.05z"/>
</svg>
