<svg class="icon" viewBox="0 0 1024 1024" xmlns="http://www.w3.org/2000/svg" width="200" height="200">
  <defs>
    <style/>
  </defs>
  <path d="M1024 512C1024 229.23 794.77 0 512 0S0 229.23 0 512s229.23 512 512 512c117.4 0 228.83-39.67 318.77-111.3 10.8-8.6 12.57-24.32 3.97-35.1-8.6-10.8-24.3-12.58-35.1-3.98C718.48 938.28 618 974.05 512 974.05 256.82 974.05 49.95 767.18 49.95 512S256.82 49.95 512 49.95 974.05 256.82 974.05 512c0 87.5-24.34 171.34-69.58 243.96-7.3 11.7-3.7 27.1 8 34.4 11.7 7.3 27.1 3.72 34.4-8C997 701.9 1024 608.9 1024 512z" />
  <path d="M499.5 743.02c0 13.8 11.2 24.98 25 24.98 13.78 0 24.96-11.18 24.96-24.98V424.6c0-13.8-11.18-25-24.97-25-13.8 0-25 11.2-25 25V743zM499.5 318.44c0 13.8 11.2 24.97 25 24.97 13.78 0 24.96-11.17 24.96-24.96v-43.7c0-13.8-11.18-24.98-24.97-24.98-13.8 0-25 11.18-25 24.97v43.7z" />
</svg>
