<svg class="icon" viewBox="0 0 1024 1024" xmlns="http://www.w3.org/2000/svg" width="200" height="200">
  <defs>
    <style/>
  </defs>
  <path d="M512 0C229.23 0 0 229.23 0 512s229.23 512 512 512c249.33 0 461.2-179.44 504.15-422.24 2-11.3 3.62-22.67 4.86-34.12 1.5-13.72-8.42-26.04-22.14-27.52-13.7-1.48-26.03 8.43-27.5 22.15-1.13 10.33-2.6 20.6-4.4 30.8C928.23 812.1 737 974.04 512 974.04 256.82 974.05 49.95 767.18 49.95 512S256.82 49.95 512 49.95c186.04 0 351.7 110.97 424.3 278.8 5.47 12.66 20.17 18.5 32.83 13 12.66-5.46 18.5-20.16 13-32.82C901.72 122.96 718.14 0 512 0z" />
  <path d="M958.44 350.25l24.98-24.98H724.3c-13.8 0-24.98 11.18-24.98 24.98s11.18 24.97 24.97 24.97H983.4c13.8 0 24.97-11.18 24.97-24.97V74.93c0-13.8-11.2-24.98-24.98-24.98-13.8 0-24.98 11.18-24.98 24.98v275.32z" />
</svg>
