<svg class="icon" viewBox="0 0 1024 1024" xmlns="http://www.w3.org/2000/svg" width="200" height="200">
  <defs>
    <style/>
  </defs>
  <path d="M1001.53 991.7c-1.6-4.88-1.6-4.88-2.87-7.17-1.1-1.98-2.37-3.8-3.96-5.88-2.2-2.86-5.28-6.48-9.34-11.03-7.14-8-17.54-19.07-31.32-33.43-21.54-22.47-43.13-44.52-95.56-97.8-51.92-52.78-73.7-75.03-95.05-97.3-13.4-13.94-23.44-24.66-30.1-32.1-3.3-3.7-5.68-6.5-6.96-8.17.85 1.6.85 1.6 2.2 5.6 2.12 7.48 2.12 7.48-6.96 24.74C803.86 649.92 851.34 540 851.34 422.4c0-233.3-185.8-422.4-415-422.4s-415 189.1-415 422.4c0 233.28 185.8 422.4 415 422.4 5.03 0 10.23-.24 16.02-.68 4.14-.32 7.73-.67 14.3-1.34 13.3-1.37 18.15-1.77 23.75-1.77 9.5 0 24.56-3.35 47-9.57l8.08-2.28c8.5-2.44 17.2-5.04 25.62-7.64 5.06-1.56 8.93-2.78 11.13-3.5 13.25-4.24 20.6-18.62 16.42-32.1-4.18-13.5-18.3-20.97-31.55-16.7-2.04.64-5.73 1.8-10.6 3.3-8.14 2.52-16.5 5.03-24.66 7.37-2.62.75-5.18 1.47-7.67 2.16-17.23 4.78-30.7 7.78-33.77 7.78-7.94 0-13.68.48-28.82 2.04-6.16.63-9.44.95-13.03 1.22-4.62.36-8.6.54-12.22.54-201.4 0-364.7-166.2-364.7-371.2s163.3-371.2 364.7-371.2c201.42 0 364.7 166.2 364.7 371.2 0 103.38-41.7 199.9-114 269.6-9.26 17.56-9.26 17.56-7.05 25.63 1.6 4.68 1.6 4.68 2.83 6.92 1.1 1.96 2.37 3.78 3.95 5.84 2.2 2.86 5.3 6.5 9.37 11.04 7.14 8 17.54 19.1 31.32 33.45 21.56 22.46 43.4 44.78 95.48 97.7 52.27 53.14 73.8 75.12 95.14 97.36 13.4 13.96 23.44 24.67 30.08 32.1 3.3 3.7 5.67 6.48 6.94 8.13-.94-1.76-.94-1.76-2.32-5.95-2.07-8.08-2.07-8.08 8.1-25.4-10.62 9.13-11.95 25.28-2.98 36.08 8.97 10.8 24.84 12.15 35.45 3.02 10.35-17.62 10.35-17.62 8.2-26.25z" />
</svg>
