<svg class="icon" viewBox="0 0 1024 1024" xmlns="http://www.w3.org/2000/svg" width="200" height="200">
  <defs>
    <style/>
  </defs>
  <path d="M464.25 677.5c9.96 9.15 25.42 8.7 34.84-1.02l299.8-309.44c9.6-9.9 9.35-25.72-.55-35.32-9.9-9.6-25.72-9.35-35.32.56L463.2 641.72l34.85-1L316.6 473.93c-10.15-9.33-25.95-8.67-35.28 1.5-9.34 10.14-8.67 25.94 1.5 35.28L464.24 677.5z" />
  <path d="M1024 512C1024 229.23 794.77 0 512 0S0 229.23 0 512s229.23 512 512 512c117.4 0 228.83-39.67 318.77-111.3 10.8-8.6 12.57-24.32 3.97-35.1-8.6-10.8-24.3-12.58-35.1-3.98C718.48 938.28 618 974.05 512 974.05 256.82 974.05 49.95 767.18 49.95 512S256.82 49.95 512 49.95 974.05 256.82 974.05 512c0 87.5-24.34 171.34-69.58 243.96-7.3 11.7-3.7 27.1 8 34.4 11.7 7.3 27.1 3.72 34.4-8C997 701.9 1024 608.9 1024 512z" />
</svg>
