<?xml version="1.0" standalone="no"?><!DOCTYPE svg PUBLIC "-//W3C//DTD SVG 1.1//EN" "http://www.w3.org/Graphics/SVG/1.1/DTD/svg11.dtd"><svg class="icon" width="200px" height="200.00px" viewBox="0 0 1024 1024" version="1.1" xmlns="http://www.w3.org/2000/svg"><path fill="#000000" d="M852.9 538.4c-20.9 0-37.8 16.9-37.8 37.8 0 81-31.5 157.1-88.8 214.3C669.1 847.8 593 879.3 512 879.3s-157.1-31.5-214.3-88.8c-57.3-57.3-88.8-133.4-88.8-214.3s31.5-157.1 88.8-214.3c57.3-57.3 133.4-88.8 214.3-88.8 0.3 0 0.6 0 0.9 0l-66.2 86.3c-12.7 16.6-9.6 40.3 7 52.9 6.9 5.3 14.9 7.8 22.9 7.8 11.3 0 22.6-5.1 30-14.8l118.7-154.9c12.7-16.6 9.6-40.3-7-52.9L461 76.9c-16.6-12.7-40.3-9.5-52.9 7-12.7 16.6-9.6 40.3 7 52.9l79.7 61.1c-45 2-88.7 11.8-130.1 29.4-45.1 19.1-85.6 46.4-120.3 81.1-34.8 34.8-62.1 75.3-81.1 120.3-19.8 46.7-29.8 96.3-29.8 147.4 0 51.1 10 100.7 29.8 147.4 19.1 45.1 46.4 85.6 81.1 120.3 34.8 34.8 75.3 62.1 120.3 81.1 46.7 19.8 96.3 29.8 147.4 29.8 51.1 0 100.7-10 147.4-29.8C704.5 906 745 878.7 779.7 844c34.8-34.8 62.1-75.3 81.1-120.3 19.8-46.7 29.8-96.3 29.8-147.4C890.7 555.4 873.7 538.4 852.9 538.4z" /></svg>