<svg class="icon" viewBox="0 0 1024 1024" xmlns="http://www.w3.org/2000/svg" width="200" height="200">
  <defs>
    <style/>
  </defs>
  <path d="M1024 512C1024 229.23 794.77 0 512 0S0 229.23 0 512s229.23 512 512 512c117.4 0 228.83-39.67 318.77-111.3 10.8-8.6 12.57-24.32 3.97-35.1-8.6-10.8-24.3-12.58-35.1-3.98C718.48 938.28 618 974.05 512 974.05 256.82 974.05 49.95 767.18 49.95 512S256.82 49.95 512 49.95 974.05 256.82 974.05 512c0 87.5-24.34 171.34-69.58 243.96-7.3 11.7-3.7 27.1 8 34.4 11.7 7.3 27.1 3.72 34.4-8C997 701.9 1024 608.9 1024 512z"/>
  <path d="M331.84 663.58c-9.67 9.84-9.52 25.65.32 35.3 9.84 9.68 25.65 9.54 35.32-.3l350-356.4c9.66-9.84 9.52-25.65-.33-35.32-9.84-9.66-25.65-9.52-35.32.32l-350 356.4z"/>
  <path d="M681.83 698.58c9.67 9.84 25.48 9.98 35.32.3 9.85-9.65 10-25.46.32-35.3l-350-356.4c-9.66-9.84-25.47-9.98-35.3-.32-9.85 9.67-10 25.48-.33 35.32l350 356.4z"/>
</svg>
