<svg class="icon" viewBox="0 0 1024 1024" xmlns="http://www.w3.org/2000/svg" width="200" height="200">
  <defs>
    <style/>
  </defs>
  <path d="M1024 512C1024 229.23 794.77 0 512 0S0 229.23 0 512s229.23 512 512 512c117.4 0 228.83-39.67 318.77-111.3 10.8-8.6 12.57-24.32 3.97-35.1-8.6-10.8-24.3-12.58-35.1-3.98C718.48 938.28 618 974.05 512 974.05 256.82 974.05 49.95 767.18 49.95 512S256.82 49.95 512 49.95 974.05 256.82 974.05 512c0 87.5-24.34 171.34-69.58 243.96-7.3 11.7-3.7 27.1 8 34.4 11.7 7.3 27.1 3.72 34.4-8C997 701.9 1024 608.9 1024 512z" />
  <path d="M533.08 691.42c18.84 0 34.1 15.25 34.1 34.1v9.02c0 18.83-15.13 34.1-34.1 34.1-18.84 0-34.1-15.26-34.1-34.1v-9.03c0-18.82 15.13-34.08 34.1-34.08zM374.63 418.65s2.68 23.56 29 23.56c26.33 0 27.88-23.55 27.88-23.55-1.73-76.27 33.6-112.5 105.96-108.9 48.15 5.45 73.1 32.63 74.77 81.64-3.34 21.82-21.6 50.04-54.15 84.5-43.07 43.57-64.6 82.6-64.6 117.05v35.34s3.3 21.07 27.1 21.07 27.1-21.08 27.1-21.08v-24.56c0-28.78 20.64-63.4 61.97-103.45 43.23-39.83 64.7-76.2 64.7-108.9-3.57-90.67-50.82-137.93-142.13-141.6-105.03-1.76-157.6 54.52-157.6 168.85z" />
</svg>
