<svg class="icon" viewBox="0 0 1024 1024" xmlns="http://www.w3.org/2000/svg" width="200" height="200">
  <defs>
    <style/>
  </defs>
  <path d="M516.27 1024h-8.54c-253.86 0-458.66-204.8-458.66-458.67V119.47c0-12.8 8.53-21.34 21.33-21.34h106.67c87.46 0 174.93-21.33 253.86-59.73l72.54-36.27c6.4-2.13 12.8-2.13 19.2 0L595.2 38.4c78.93 38.4 166.4 59.73 253.87 59.73h106.66c12.8 0 21.34 8.54 21.34 21.34s-8.54 21.33-21.34 21.33H849.07c-93.87 0-187.74-21.33-273.07-64l-64-32-61.87 32c-85.33 42.67-179.2 64-273.06 64H91.73v424.53c0 230.4 185.6 416 416 416h8.54c228.26 0 416-185.6 416-416V266.67l-405.34 390.4c-8.53 8.53-21.33 8.53-29.86 0L296.53 456.53c-8.53-8.53-8.53-21.33 0-29.86s21.34-8.54 29.87 0L512 612.27l426.67-409.6c6.4-6.4 14.93-8.54 23.46-4.27 8.54 4.27 12.8 10.67 12.8 19.2v347.73c0 253.87-204.8 458.67-458.66 458.67z"/>
</svg>
